<?xml version="1.0" encoding="utf-8"?>
<!-- Generator: Adobe Illustrator 27.4.1, SVG Export Plug-In . SVG Version: 6.00 Build 0)  -->
<svg version="1.1" id="Camada_1" xmlns="http://www.w3.org/2000/svg" xmlns:xlink="http://www.w3.org/1999/xlink" x="0px" y="0px"
	 viewBox="0 0 1080 1080" style="enable-background:new 0 0 1080 1080;" xml:space="preserve">
<style type="text/css">
	.st0{fill:#E6223E;}
	.st1{fill:#592D87;}
</style>
<path class="st0" d="M713.3,223.5c-24.5-23.2-56.8-36-90.9-36c-29.6,0-58.3,9.7-81.9,27.5c-19.7-15.6-43.1-25.2-68.3-27.8
	c-0.2,0-0.3,0-0.5,0l-3.9-0.2c-0.2,0-0.5,0-0.7,0c-17.7,0-32,14.4-32,32c0,15.7,11.7,29.3,27.2,31.7c1.4,0.2,2.8,0.3,4.2,0.4
	l9.1,0.9c1.2,0.1,2.4,0.3,3.6,0.5c15.9,2.4,25.5,9.4,36,19.9l10.4,10.4c3.9,3.9,9.1,6.1,14.7,6.1c5.5,0,10.7-2.2,14.7-6.1l8.6-8.6
	c28.2-28.2,74.1-29.4,102.4-2.7c14.4,13.6,22.4,32,22.7,51.7c0.3,19.8-7.3,38.3-21.2,52.3L553.9,488.7c-7.6,7.6-19.8,7.6-27.4,0
	L413.7,375.9c-7.6-7.6-13.4-16.5-17.2-26.5c-6.7-17.8-6.5-37.8,0.8-54.9c2.5-5.9-0.2-12.7-6.1-15.2c-5.9-2.5-12.7,0.2-15.2,6.1
	c-9.6,22.6-10,48.9-1.1,72.2c5,13.1,12.5,24.8,22.5,34.7l112.8,112.8c16.6,16.6,43.6,16.6,60.2,0l113.4-113.4
	c18.4-18.4,28.4-43,28-69c-0.4-26.1-11-50.3-30-68.3c-37.3-35.3-97.7-33.9-134.7,3.1l-6.9,6.9l-8.7-8.7
	c-11.6-11.6-25.6-22.8-48.9-26.4c-1.5-0.2-3.1-0.4-4.8-0.6l-9.6-0.9c-0.8-0.1-1.7,0-2.4-0.2c-4.3-0.6-7.5-4.4-7.5-8.7
	c0-4.8,3.8-8.7,8.6-8.8l3.2,0.2c23.4,2.5,45,12.3,62.4,28.4c4.4,4,11,4.1,15.5,0.2c20.7-18.1,47.1-28.1,74.5-28.1
	c28.1,0,54.7,10.5,74.9,29.6c21.8,20.6,34,48.5,34.4,78.5c0.4,30-11,58.2-32.2,79.3l-122,122c-10,10-23.3,15.5-37.4,15.5
	c-14.1,0-27.4-5.5-37.4-15.5l-37.9-37.9c-4.5-4.5-11.9-4.5-16.4,0c-4.5,4.5-4.5,11.9,0,16.4l37.9,37.9
	c14.4,14.4,33.5,22.3,53.8,22.3c20.3,0,39.4-7.9,53.8-22.3l122-122c25.7-25.7,39.5-59.8,39-96.1
	C754.5,282.2,739.7,248.4,713.3,223.5 M355.8,359c-15.3-40.3-6.7-84.3,22.3-114.9c11-11.7,24-20.6,38.5-26.4
	c5.9-2.4,8.8-9.2,6.4-15.1c-2.4-5.9-9.2-8.8-15.1-6.4c-17.6,7.1-33.3,17.9-46.7,32c-35.2,37.2-45.6,90.5-27.1,139.1
	c6.9,18.1,17.3,34.3,31.1,48c2.3,2.3,5.2,3.4,8.2,3.4c3,0,5.9-1.1,8.2-3.4c4.5-4.5,4.5-11.9,0-16.4C370.2,387.4,361.5,374,355.8,359
	 M637.6,301.3c4.3,4.1,7.2,9.3,8.4,15c1.1,5.5,6,9.3,11.3,9.3c0.8,0,1.6-0.1,2.3-0.2c6.3-1.3,10.3-7.4,9-13.7
	c-2.2-10.4-7.4-19.8-15.2-27.2c-6.2-5.9-13.8-10.1-22.1-12.3c-6.2-1.6-12.5,2.1-14.2,8.3c-1.6,6.2,2.1,12.5,8.3,14.2
	C630.2,295.8,634.2,298,637.6,301.3"/>
<path class="st1" d="M319.8,647.9c-0.1,0.9-0.9,1.5-1.8,1.2c-2.6-0.8-5.4-1.6-8.4-2.2c-3.6-0.7-7.2-1.1-10.7-1.1
	c-5.6,0-10.4,0.6-14.3,1.9c-3.9,1.3-7,3.3-9.4,6c-2.4,2.8-4,6.4-5,10.9c-1,4.5-1.5,10-1.5,16.4c0,13.2,2.5,22.5,7.7,28.1
	c5.1,5.6,12.4,8.4,22,8.4c7.5,0,14.3-1.3,20.4-3.8c0.9-0.4,1.9,0.2,1.9,1.1l2,21.6c0,0.5-0.2,1.1-0.7,1.3c-3.5,2.1-7.7,3.6-12.7,4.8
	c-5.3,1.2-11.3,1.8-17.8,1.8c-18.1,0-31.9-5.2-41.2-15.5c-9.3-10.3-14-26.3-14-47.7c0-10.1,1.1-19,3.2-26.9
	c2.2-7.9,5.5-14.5,10-19.8c4.5-5.4,10.3-9.5,17.3-12.3c7.1-2.8,15.5-4.2,25.3-4.2c5.1,0,10.3,0.5,15.6,1.5c4.9,0.9,9.1,2,12.8,3.4
	c0.6,0.2,0.9,0.8,0.9,1.4L319.8,647.9z"/>
<path class="st1" d="M402.1,690.4c0-0.6-0.3-1.1-0.9-1.3c-1.4-0.5-3.4-1-5.8-1.5c-3-0.5-6.5-0.8-10.7-0.8
	c-13.6,0-20.3,5.4-20.3,16.1c0,6,1.6,10.2,4.8,12.6c3.2,2.3,7.4,3.5,12.5,3.5c2.7,0,5.2-0.4,7.7-1.1c2.4-0.7,4.6-1.8,6.4-3.1
	l1.6-1.2c2.5-1.8,4.6-5.9,4.6-9V690.4z M406.7,730.2l-0.6-0.2c-3.8,4.4-8.5,7.9-14.1,10.3c-5.6,2.4-12,3.6-18.9,3.6
	c-11.6,0-20.7-3.3-27.6-10c-6.9-6.6-10.3-16.8-10.3-30.5c0-5.6,1-10.8,2.9-15.5s4.8-8.7,8.5-12c3.7-3.3,8.2-5.9,13.6-7.8
	c5.4-1.9,11.5-2.8,18.5-2.8c4.6,0,8.8,0.3,12.7,0.9c3.2,0.5,6.2,1.1,8.9,2c0.9,0.3,1.8-0.4,1.8-1.3v-5.2c0-6.2-1.7-10.7-5.2-13.6
	c-3.5-2.9-9.5-4.3-17.9-4.3c-6.7,0-12.6,0.5-17.6,1.6c-4.5,1-9.3,2.4-14.3,4.4c-0.9,0.3-1.8-0.2-1.9-1.1l-2.3-22.1
	c-0.1-0.6,0.3-1.2,0.8-1.4c5.9-2.5,12.1-4.4,18.7-5.6c6.9-1.3,14.3-2,22.3-2c9,0,16.6,1,22.8,2.9c6.2,2,11.2,4.9,15,9
	s6.6,9.1,8.3,15.3c1.7,6.2,2.5,13.4,2.5,21.8v74.2c0,0.8-0.6,1.4-1.4,1.4h-21.5c-0.7,0-1.2-0.5-1.4-1.1L406.7,730.2z"/>
<path class="st1" d="M456.9,740.5V621.9c0-0.7,0.6-1.3,1.3-1.4l22.4-1.1c0.7,0,1.3,0.5,1.4,1.2l2.6,19.1h0.6
	c3.9-7.4,8.7-12.9,14.4-16.5c5.7-3.6,12.1-5.4,19-5.4c2.7,0,5.2,0.2,7.4,0.5c1.8,0.3,3.4,0.6,4.8,1c0.6,0.2,1,0.8,1,1.4l-1.8,28
	c-0.1,0.9-0.9,1.5-1.8,1.2c-1.4-0.4-2.9-0.7-4.6-1c-2.3-0.3-4.6-0.5-7.1-0.5c-8.2,0-15,2.8-20.3,8.5c-5.4,5.6-8.1,13.6-8.1,23.8
	v59.9c0,0.8-0.6,1.4-1.4,1.4h-28.7C457.5,741.9,456.9,741.3,456.9,740.5"/>
<path class="st1" d="M616.4,655.1c0-0.3-0.1-0.6-0.3-0.9c-1.9-2.5-4.5-4.6-7.9-6.3c-3.6-1.7-7.7-2.6-12.4-2.6
	c-4.3,0-7.9,0.6-10.9,1.8c-3,1.2-5.4,3.2-7.3,6c-1.9,2.8-3.2,6.5-4,11.2c-0.8,4.6-1.2,10.4-1.2,17.2c0,7.1,0.4,13.1,1.1,17.8
	c0.7,4.8,2,8.6,3.8,11.5c1.8,2.9,4.2,4.9,7.1,6.1c3,1.2,6.7,1.8,11.1,1.8c5.8,0,10.3-1.1,13.6-3.2c3.1-2,5.5-4.3,6.9-6.7
	c0.1-0.2,0.2-0.5,0.2-0.8V655.1z M624.3,741.9c-0.6,0-1.2-0.4-1.3-1l-2.7-9.5l-0.6-0.2c-3.6,4.3-8.1,7.6-13.5,9.8
	c-5.4,2.2-11.7,3.3-19.1,3.3c-15.8,0-27.6-5.2-35.3-15.5c-7.7-10.3-11.5-26.5-11.5-48.6c0-20.1,3.8-35.7,11.5-46.5
	c7.7-10.9,19.3-16.3,34.9-16.3c11.7,0,21.6,3.7,29.8,11.1l0.4-0.4l-0.4-16.1v-25.5c0-0.7,0.6-1.3,1.3-1.4l28.4-1.5
	c0.8,0,1.5,0.6,1.5,1.4v155.5c0,0.8-0.6,1.4-1.4,1.4H624.3z"/>
<path class="st1" d="M676.9,740.5V621.9c0-0.7,0.6-1.3,1.3-1.4l29.3-1.3c0.8,0,1.4,0.6,1.4,1.4v119.8c0,0.8-0.6,1.4-1.4,1.4h-29.3
	C677.5,741.9,676.9,741.3,676.9,740.5 M710.7,593.4c0,4.4-1.4,7.8-4.2,10c-2.8,2.2-7.3,3.3-13.5,3.3c-6,0-10.5-1-13.5-2.9
	c-3-1.9-4.4-5.4-4.4-10.4c0-9,6-13.5,17.9-13.5c6.2,0,10.7,1.1,13.5,3.4C709.3,585.6,710.7,589,710.7,593.4"/>
<path class="st1" d="M764.5,681.2c0,7.5,0.4,13.7,1.3,18.6c0.9,4.9,2.2,8.8,4.1,11.6c1.9,2.8,4.3,4.8,7.3,5.9
	c3,1.1,6.6,1.7,10.9,1.7c4.3,0,7.9-0.6,10.9-1.7c3-1.1,5.4-3.2,7.3-6c1.9-2.9,3.2-6.7,4-11.6c0.8-4.8,1.2-11,1.2-18.5
	c0-7.4-0.4-13.5-1.2-18.4c-0.8-4.9-2.2-8.8-4-11.7c-1.9-2.9-4.3-4.9-7.3-6c-3-1.1-6.6-1.7-10.9-1.7c-4.3,0-8,0.6-11,1.7
	s-5.5,3.2-7.4,6c-1.9,2.9-3.2,6.8-4,11.7C764.9,667.7,764.5,673.9,764.5,681.2 M843.9,681.2c0,11.3-1.1,20.9-3.2,28.9
	c-2.2,8-5.5,14.5-10.1,19.6c-4.6,5.1-10.4,8.9-17.4,11.3c-7.1,2.4-15.4,3.6-25.1,3.6s-18-1.2-25.1-3.6s-12.9-6.2-17.4-11.3
	c-4.6-5.1-8-11.6-10.2-19.6s-3.3-17.6-3.3-28.9c0-22.3,4.5-38.5,13.5-48.6c9-10.1,23.2-15.1,42.5-15.1c9.7,0,18,1.2,25.1,3.6
	c7,2.4,12.9,6.2,17.4,11.4c4.6,5.2,7.9,11.8,10.1,19.8C842.8,660.5,843.9,670.1,843.9,681.2"/>
<path class="st1" d="M415,785.6c-0.1,0.7-0.9,1.2-1.6,0.9c-2.9-1.2-6.3-2.3-10.3-3.1c-4.6-0.9-9.3-1.4-14.2-1.4
	c-6.5,0-12,0.8-16.7,2.4c-4.7,1.6-8.5,4.2-11.5,7.8c-3,3.6-5.2,8.4-6.7,14.4c-1.4,6-2.1,13.4-2.1,22.3c0,9.4,0.7,17.3,2.1,23.7
	c1.4,6.4,3.7,11.5,6.8,15.3c3.1,3.8,7,6.6,11.7,8.2c4.7,1.6,10.4,2.5,17,2.5c5,0,9.7-0.5,14-1.6c3.7-0.9,7.2-2.1,10.5-3.7
	c0.7-0.3,1.5,0.1,1.6,0.8l1.8,11.8c0.1,0.5-0.2,1-0.6,1.2c-3.7,1.8-8.1,3.4-13.1,4.7c-5.4,1.4-10.8,2.1-16.3,2.1
	c-18.3,0-31.8-5.2-40.3-15.7c-8.6-10.5-12.8-27-12.8-49.5c0-21.2,4.3-36.9,13-47.3c8.7-10.3,22.3-15.5,41-15.5
	c5.2,0,10.4,0.6,15.7,1.7c4.9,1.1,9,2.3,12.3,3.7c0.5,0.2,0.7,0.7,0.7,1.2L415,785.6z"/>
<path class="st1" d="M479,793.5l-17.8,52.7c-0.2,0.7,0.3,1.5,1.1,1.5h41.5c0.8,0,1.3-0.8,1.1-1.5l-17.5-52.7l-3.8-12.8h-0.5
	L479,793.5z M509.3,862.3h-52.7c-0.5,0-0.9,0.3-1.1,0.8l-9.4,27.9c-0.2,0.5-0.6,0.8-1.1,0.8h-15.7c-0.8,0-1.3-0.8-1.1-1.5L473,769
	c0.2-0.4,0.6-0.7,1.1-0.7h18.5c0.5,0,0.9,0.3,1.1,0.7l44.8,121.2c0.3,0.7-0.3,1.5-1.1,1.5h-16.5c-0.5,0-0.9-0.3-1.1-0.8l-9.4-27.9
	C510.2,862.6,509.8,862.3,509.3,862.3"/>
<path class="st1" d="M621.9,804.2c0-7.8-1.8-13.3-5.3-16.5c-3.5-3.2-9.2-4.8-17-4.8h-23.9c-0.6,0-1.1,0.5-1.1,1.1v41.2
	c0,0.6,0.5,1.1,1.1,1.1H599c7.9,0,13.7-1.7,17.4-5C620.1,818,621.9,812.3,621.9,804.2 M639.4,803.5c0,9.6-2.1,17.1-6.2,22.7
	c-3.8,5.2-9.3,8.6-16.5,10.1c-0.8,0.2-1.2,1-0.8,1.7l30.5,52.1c0.4,0.8-0.1,1.7-1,1.7H628c-0.4,0-0.8-0.2-1-0.6l-27.2-50.8
	c-0.2-0.4-0.6-0.6-1-0.6h-23.1c-0.6,0-1.1,0.5-1.1,1.1v49.8c0,0.6-0.5,1.1-1.1,1.1H559c-0.6,0-1.1-0.5-1.1-1.1l0-121.2
	c0-0.6,0.5-1.1,1.1-1.1h40.7c13.6,0,23.6,2.9,30.1,8.6C636.2,782.7,639.4,791.6,639.4,803.5"/>
<path class="st1" d="M746.1,877.6l-0.4,13.1c0,0.6-0.5,1.1-1.1,1.1H668c-0.6,0-1.1-0.5-1.1-1.1V769.4c0-0.6,0.5-1.1,1.1-1.1h73.7
	c0.6,0,1.1,0.5,1.1,1.1l0.4,13.2c0,0.6-0.5,1.2-1.1,1.2h-57.3c-0.6,0-1.1,0.5-1.1,1.1v34.5c0,0.6,0.5,1.1,1.1,1.1h48.8
	c0.6,0,1.1,0.5,1.1,1.1v11.9c0,0.6-0.5,1.1-1.1,1.1h-48.8c-0.6,0-1.1,0.5-1.1,1.1v39.6c0,0.6,0.5,1.1,1.1,1.1h60.1
	C745.6,876.5,746.1,877,746.1,877.6"/>
</svg>
