<?xml version="1.0" encoding="utf-8"?>
<!-- Generator: Adobe Illustrator 27.4.1, SVG Export Plug-In . SVG Version: 6.00 Build 0)  -->
<svg version="1.1" id="Capa_1" xmlns="http://www.w3.org/2000/svg" xmlns:xlink="http://www.w3.org/1999/xlink" x="0px" y="0px"
	 viewBox="0 0 500 500" style="enable-background:new 0 0 500 500;" xml:space="preserve">
<style type="text/css">
	.st0{fill:#FFFFFF;}
</style>
<path class="st0" d="M427.4,438.8c-6.3,0-11.4-5.1-11.4-11.4s5.1-11.4,11.4-11.4c6.3,0,11.4,5.1,11.4,11.4S433.7,438.8,427.4,438.8
	 M430.2,261.4h-22.7v-22.7h22.7V261.4z M261.4,92.5h-22.7V69.8h22.7V92.5z M72.6,83.9c-6.3,0-11.4-5.1-11.4-11.4s5.1-11.4,11.4-11.4
	c6.2,0,11.3,5.1,11.3,11.3c0,0,0,0.1,0,0.1C83.9,78.8,78.8,83.9,72.6,83.9 M416.1,61.2h22.7v22.7h-22.7V61.2z M436.1,406
	c11-25.4,15.8-50.7,14.2-75.6c-1.5-23.5-8.5-42.1-16-57.5c4.4-1,7.7-4.9,7.7-9.6v-26.6c0-5.4-4.4-9.8-9.8-9.8h-23.2
	c-7.6-14.8-15-32.8-15.7-55.7c-0.7-24.5,6.4-49.9,21.2-75.5h26.4c5.4,0,9.8-4.4,9.8-9.8V59.2c0-5.4-4.4-9.8-9.8-9.8h-26.6
	c-5.4,0-9.8,4.4-9.8,9.8v26.4c-25.6,14.8-51,21.9-75.5,21.2c-22.9-0.7-41-8.1-55.7-15.7V67.9c0-5.4-4.4-9.8-9.8-9.8h-26.6
	c-4.7,0-8.6,3.3-9.6,7.7c-15.4-7.6-34-14.5-57.5-16c-24.8-1.6-50.2,3.2-75.6,14.2c-3.4-8.5-11.7-14.5-21.4-14.5
	c-12.7,0-23.1,10.4-23.1,23.1c0,12.7,10.4,23.1,23.1,23.1c11.5,0,21.1-8.5,22.8-19.5c24.7-11.3,49.4-16.2,73.4-14.7
	c24.1,1.6,42.8,9.4,58.1,17.4v15.7c0,5.4,4.4,9.8,9.8,9.8h26.6c2.2,0,4.2-0.7,5.9-2c15.7,7.9,34.8,15.5,59.3,16.2
	c23.2,0.7,45.6-4.7,69-15.9c-11.3,23.2-16.6,46.4-15.9,69c0.7,24.5,8.3,43.6,16.2,59.3c-1.2,1.6-2,3.7-2,5.9v26.6
	c0,5.4,4.4,9.8,9.8,9.8h15.7c7.9,15.3,15.8,34,17.4,58.1c1.5,24-3.4,48.7-14.7,73.4c-11,1.7-19.5,11.3-19.5,22.8
	c0,12.7,10.4,23.1,23.1,23.1c12.7,0,23.1-10.4,23.1-23.1C450.5,417.8,444.6,409.4,436.1,406 M352.3,166.6c-3.7-2.1-8.1-1.6-11.1,1.4
	l-92.5,92.5c-2.7,2.7-4.2,6.4-4.2,10c0,3.8-1.4,7.3-3.9,9.8c-2.6,2.6-6.2,4-9.9,3.9c-3.9-0.1-7.6-1.7-10.4-4.5
	c-2.8-2.8-4.5-6.6-4.5-10.4c-0.1-3.8,1.3-7.3,3.9-10c2.6-2.6,6.1-4,9.8-3.9c3.7,0.1,7.3-1.5,10-4.2l92.5-92.5c3-3,3.6-7.5,1.4-11.1
	c-2.2-3.7-6.3-5.3-10.4-4.2l-74.7,21.1c-3.1,0.9-4.9,4.1-4.1,7.2c0.9,3.1,4.1,4.9,7.2,4.1l65.2-18.4L231.2,243
	c-0.5,0.5-1,0.7-1.6,0.7c-0.1,0-0.2,0-0.4,0c-6.8,0-13.2,2.6-18,7.4c-4.9,4.9-7.5,11.5-7.4,18.5c0.1,6.9,3,13.5,8,18.5
	s11.6,7.8,18.5,8c7,0.1,13.6-2.5,18.5-7.4c4.9-4.9,7.5-11.4,7.4-18.3c0-0.5,0.3-1.1,0.7-1.6l85.5-85.5l-41.4,146.4
	c-1.6,5.8-5.8,10.5-11.3,12.8l-103.6,43.8l-72.6-72.6l43.8-103.6c2.3-5.5,7-9.6,12.8-11.3l54.9-15.5c3.1-0.9,4.9-4.1,4.1-7.2
	c-0.9-3.1-4.1-4.9-7.2-4.1l-54.9,15.5c-9.3,2.6-16.7,9.2-20.4,18l-41.9,99.2l-3.8-3.8c-3.7-3.7-8.5-5.7-13.7-5.7
	c-5.2,0-10.1,2-13.7,5.7l-18.3,18.3c-3.7,3.7-5.7,8.5-5.7,13.7c0,5.2,2,10.1,5.7,13.7l57.7,57.7c2.3,2.3,6,2.3,8.3,0
	c2.3-2.3,2.3-6,0-8.3l-57.7-57.7c-1.4-1.4-2.2-3.4-2.2-5.4c0-2,0.8-4,2.2-5.4l18.3-18.3c1.4-1.4,3.4-2.2,5.4-2.2c2,0,4,0.8,5.4,2.2
	l98.1,98.1c1.5,1.4,2.2,3.4,2.2,5.4c0,2-0.8,4-2.2,5.4l-18.3,18.3c-3,3-7.8,3-10.8,0l-21.1-21.1c-2.3-2.3-6-2.3-8.3,0
	c-2.3,2.3-2.3,6,0,8.3l21.1,21.1c3.8,3.8,8.7,5.7,13.7,5.7c5,0,9.9-1.9,13.7-5.7l18.3-18.3c3.7-3.7,5.7-8.5,5.7-13.7
	c0-5.2-2-10-5.7-13.7l-3.8-3.8l99.2-41.9c8.8-3.7,15.4-11.2,18-20.4L356.5,177C357.7,172.9,356,168.7,352.3,166.6"/>
</svg>
