<?xml version="1.0" encoding="utf-8"?>
<!-- Generator: Adobe Illustrator 27.4.1, SVG Export Plug-In . SVG Version: 6.00 Build 0)  -->
<svg version="1.1" id="Capa_1" xmlns="http://www.w3.org/2000/svg" xmlns:xlink="http://www.w3.org/1999/xlink" x="0px" y="0px"
	 viewBox="0 0 500 500" style="enable-background:new 0 0 500 500;" xml:space="preserve">
<style type="text/css">
	.st0{fill:#FFFFFF;}
</style>
<path class="st0" d="M361.8,248.8l-51.9,51.9l-0.1-0.1v0l-51.8-51.8c-11.4-11.4-11.4-29.9,0-41.3c11.4-11.4,29.9-11.4,41.3,0
	l10.6,10.6l10.6-10.6c11.4-11.4,29.9-11.4,41.3,0C373.2,218.9,373.2,237.4,361.8,248.8 M366.7,202.6c-14.1-14.1-37-14.1-51.1,0
	l-5.7,5.7l-5.7-5.7c-14.1-14.1-37-14.1-51.1,0c-14.1,14.1-14.1,37,0,51.1l54.2,54.2l2.3,2.1l0.3,0.3l56.7-56.7
	C380.8,239.6,380.8,216.7,366.7,202.6 M308.2,329.1c-18.2,0-35.8-5.3-50.9-15.3L256,313l-31.1,8.3l8.2-30.7l-0.9-1.3
	c-10.8-15.5-16.5-33.8-16.5-52.7c0-51,41.5-92.5,92.5-92.5s92.5,41.5,92.5,92.5S359.2,329.1,308.2,329.1 M316.8,375.9H106.6V124.1
	h210.2v13.5c-2.8-0.2-5.7-0.4-8.6-0.4c-54.8,0-99.4,44.6-99.4,99.4c0,19.8,5.8,38.9,16.8,55.3l-10.5,39.2l39.7-10.6
	c16,10.2,34.4,15.6,53.4,15.6c2.9,0,5.8-0.2,8.6-0.4V375.9z M316.8,390.8c0,16.9-13.7,30.6-30.6,30.6h-149
	c-16.9,0-30.6-13.7-30.6-30.6v-8h210.2V390.8z M106.6,109.2c0-16.9,13.7-30.6,30.6-30.6h149c16.9,0,30.6,13.7,30.6,30.6v8H106.6
	V109.2z M328.8,139.3v-3.8h-5.1v-26.4c0-20.7-16.8-37.5-37.5-37.5h-149c-20.7,0-37.5,16.8-37.5,37.5v26.4h-5.1v30.2h5.1v13.8h-5.1
	v30.2h5.1v181c0,20.7,16.8,37.5,37.5,37.5h149c20.7,0,37.5-16.8,37.5-37.5v-56c47.5-7.5,83.9-48.7,83.9-98.2
	C407.6,188.8,373.8,148.8,328.8,139.3 M199.3,396.9h25.3v9.7h-25.3V396.9z M198.8,413.6H225c3.6,0,6.5-2.9,6.5-6.5v-10.6
	c0-3.6-2.9-6.5-6.5-6.5h-26.2c-3.6,0-6.5,2.9-6.5,6.5v10.6C192.3,410.7,195.2,413.6,198.8,413.6 M171.6,398.3h-35v6.9h35V398.3z
	 M178,101.2h67.7v-6.9H178V101.2z M287.2,398.3h-35v6.9h35V398.3z"/>
</svg>
