<?xml version="1.0" encoding="utf-8"?>
<!-- Generator: Adobe Illustrator 27.4.1, SVG Export Plug-In . SVG Version: 6.00 Build 0)  -->
<svg version="1.1" id="Capa_1" xmlns="http://www.w3.org/2000/svg" xmlns:xlink="http://www.w3.org/1999/xlink" x="0px" y="0px"
	 viewBox="0 0 500 500" style="enable-background:new 0 0 500 500;" xml:space="preserve">
<style type="text/css">
	.st0{fill:#FFFFFF;}
	.st1{fill:none;}
</style>
<path class="st0" d="M457.1,403.2c0,5.9-4.8,10.7-10.7,10.7H345.2c-5.9,0-10.7-4.8-10.7-10.7V192.4c0-5.9,4.8-10.7,10.7-10.7h21.5
	v14.1c0,6.8,5.5,12.4,12.4,12.4h33.6c6.8,0,12.4-5.5,12.4-12.4v-14.1h21.5c5.9,0,10.7,4.8,10.7,10.7V403.2z M321.7,192.4v44
	l-26.6-34.5c-2.4-3.1-6-4.8-9.9-4.8c-3.9,0-7.5,1.8-9.9,4.9l-13.6,17.6l-23.5-29.1c-2.4-3-5.9-4.7-9.7-4.7c-3.8,0-7.3,1.7-9.7,4.7
	l-12.1,15v-4.5c0-16.7-12.8-30.4-29.1-31.9v-31.8c0-3.7,3-6.7,6.8-6.7h134c3.7,0,6.7,3,6.7,6.7v10.7c0,3.5,2.9,6.4,6.4,6.4
	c3.5,0,6.4-2.9,6.4-6.4v-10.7c0-10.8-8.8-19.5-19.5-19.5h-134c-10.8,0-19.5,8.8-19.5,19.5v31.7H96.9v-64h308.9v64h-60.7
	C332.2,168.9,321.7,179.4,321.7,192.4 M270,229.7l15.2-19.7l33.3,43.2c0,0-0.1,0-0.1,0h-29.5L270,229.7z M272.5,253.2h-65.8v-27.4
	l21.8-27.1L272.5,253.2z M321.7,296.9h-115V266h111.7c1.1,0,2.2-0.1,3.3-0.3V296.9z M321.7,348.1h-115v-38.4h115V348.1z
	 M301.9,413.8h-78.7c4.1-6.8,7.4-14,9.7-21.7c2.7-8.8,4-18,4-27.3v-4h51.3v4C288.1,382.2,292.9,399.1,301.9,413.8 M412.2,195.3
	h-32.7v-13.7h32.7V195.3z M84.1,101.9v67H71.3V98.5c0-10.6,8.6-19.2,19.2-19.2h321.7c10.6,0,19.2,8.6,19.2,19.2v70.4h-12.8v-67
	c0-5.4-4.4-9.8-9.8-9.8H93.9C88.5,92.1,84.1,96.5,84.1,101.9 M446.4,168.9h-2.1V98.5c0-17.6-14.4-32-32-32H90.5
	c-17.6,0-32,14.3-32,32v71.1c-14.6,3-25.6,15.9-25.6,31.4v128c0,3.5,2.9,6.4,6.4,6.4s6.4-2.9,6.4-6.4v-128
	c0-10.6,8.6-19.2,19.2-19.2h109.8c10.6,0,19.2,8.6,19.2,19.2v193.7c0,10.6-8.6,19.2-19.2,19.2H64.9c-10.6,0-19.2-8.6-19.2-19.2
	v-35.8c0-3.5-2.9-6.4-6.4-6.4s-6.4,2.9-6.4,6.4v35.8c0,17.6,14.4,32,32,32h109.8c17.6,0,32-14.4,32-32v-33.7h17.4v4
	c0,8-1.2,15.9-3.5,23.6c-2.3,7.7-5.7,14.9-10.2,21.6c-2.2,3.3-2.4,7.5-0.5,10.9c1.9,3.5,5.5,5.6,9.4,5.6h86.5
	c5.9,0,10.7-4.8,10.7-10.7c0-2.1-0.6-4.1-1.8-5.9c-8.9-13.4-13.7-29-13.7-45.2v-4h20.8v42.3c0,12.9,10.5,23.5,23.5,23.5h101.2
	c12.9,0,23.5-10.5,23.5-23.5V192.4C469.9,179.4,459.4,168.9,446.4,168.9 M261.8,173.7c-4.7,0-8.4-3.8-8.4-8.6c0-4.7,3.8-8.6,8.4-8.6
	c4.6,0,8.4,3.8,8.4,8.6C270.3,169.9,266.5,173.7,261.8,173.7 M261.8,143.8c-11.7,0-21.2,9.6-21.2,21.4c0,11.8,9.5,21.4,21.2,21.4
	c11.7,0,21.2-9.6,21.2-21.4C283.1,153.4,273.5,143.8,261.8,143.8 M401.2,279.8c-3.5,0-6.4,2.9-6.4,6.4c0,3.5,2.9,6.4,6.4,6.4
	s6.4-2.9,6.4-6.4C407.6,282.7,404.7,279.8,401.2,279.8 M125.2,263.9c3.5,0,6.4-2.9,6.4-6.4c0-3.5-2.9-6.4-6.4-6.4
	c-3.5,0-6.4,2.9-6.4,6.4C118.8,261,121.7,263.9,125.2,263.9 M432.6,318.6l-10.9-14.1c-1.8-2.4-4.6-3.8-7.6-3.8c-3,0-5.8,1.4-7.7,3.8
	l-5,6.5L391,298.3c-1.8-2.3-4.6-3.6-7.5-3.6c-2.9,0-5.7,1.3-7.5,3.6l-16.9,21v-47.7c0-0.4,0.3-0.7,0.7-0.7h72.2
	c0.4,0,0.7,0.3,0.7,0.7V318.6z M417.4,331l-7.8-9.7l4.4-5.7l11.9,15.4H417.4z M366,331l17.5-21.7L401,331H366z M431.9,258h-72.2
	c-7.4,0-13.5,6-13.5,13.5v58.8c0,7.4,6.1,13.5,13.5,13.5h72.2c7.4,0,13.5-6.1,13.5-13.5v-58.8C445.4,264.1,439.3,258,431.9,258
	 M439,356.6h-86.3c-3.5,0-6.4,2.9-6.4,6.4c0,3.5,2.9,6.4,6.4,6.4H439c3.5,0,6.4-2.9,6.4-6.4C445.4,359.4,442.5,356.6,439,356.6
	 M413.4,382.2h-35.1c-3.5,0-6.4,2.9-6.4,6.4c0,3.5,2.9,6.4,6.4,6.4h35.1c3.5,0,6.4-2.9,6.4-6.4C419.8,385,416.9,382.2,413.4,382.2
	 M126.2,200.9c0-3.5-2.9-6.4-6.4-6.4c-3.5,0-6.4,2.9-6.4,6.4c0,3.5,2.9,6.4,6.4,6.4C123.3,207.3,126.2,204.4,126.2,200.9
	 M76.7,340.6H163c3.5,0,6.4-2.9,6.4-6.4c0-3.5-2.9-6.4-6.4-6.4H76.7c-3.5,0-6.4,2.9-6.4,6.4C70.3,337.8,73.1,340.6,76.7,340.6
	 M102.3,353.4c-3.5,0-6.4,2.9-6.4,6.4c0,3.5,2.9,6.4,6.4,6.4h35.1c3.5,0,6.4-2.9,6.4-6.4c0-3.5-2.9-6.4-6.4-6.4H102.3z M156.6,242.8
	v47.1l-10.9-14.1c-1.9-2.4-4.6-3.8-7.7-3.8c-3,0-5.8,1.4-7.7,3.8l-5,6.5L115,269.5c-1.9-2.3-4.6-3.6-7.5-3.6c-2.9,0-5.7,1.3-7.5,3.6
	l-16.9,21v-47.7c0-0.4,0.3-0.7,0.7-0.7h72.2C156.3,242.1,156.6,242.4,156.6,242.8 M141.4,302.2l-7.8-9.7l4.4-5.7l11.9,15.4H141.4z
	 M90,302.2l17.5-21.7l17.5,21.7H90z M70.3,242.8v58.8c0,7.4,6.1,13.5,13.5,13.5h72.2c7.4,0,13.5-6.1,13.5-13.5v-58.8
	c0-7.4-6.1-13.5-13.5-13.5H83.7C76.3,229.3,70.3,235.3,70.3,242.8"/>
<rect x="32.9" y="66.5" class="st1" width="437" height="360.2"/>
</svg>
