<?xml version="1.0" encoding="utf-8"?>
<!-- Generator: Adobe Illustrator 27.4.1, SVG Export Plug-In . SVG Version: 6.00 Build 0)  -->
<svg version="1.1" id="Capa_1" xmlns="http://www.w3.org/2000/svg" xmlns:xlink="http://www.w3.org/1999/xlink" x="0px" y="0px"
	 viewBox="0 0 500 500" style="enable-background:new 0 0 500 500;" xml:space="preserve">
<style type="text/css">
	.st0{fill:#57F676;}
	.st1{fill-rule:evenodd;clip-rule:evenodd;fill:#FFFFFF;}
	.st2{fill:url(#XMLID_00000017474889317515210900000008261324389849117868_);}
	.st3{fill:#FFFFFF;}
	.st4{fill:#0057FF;}
</style>
<g id="XMLID_110_">
	<path id="XMLID_1108_" class="st0" d="M736.7,364.4L736.7,364.4c-70.4,0-127.5-57.1-127.5-127.5v0c0-70.4,57.1-127.5,127.5-127.5
		l0,0c70.4,0,127.5,57.1,127.5,127.5v0C864.1,307.3,807.1,364.4,736.7,364.4z"/>
	<g id="XMLID_115_">
		<path id="XMLID_118_" class="st1" d="M806.6,233.3c-0.9-36.8-31.3-66.4-68.6-66.4c-36.9,0-67,28.9-68.6,65.2c0,1-0.1,2-0.1,3
			c0,12.9,3.6,24.9,9.8,35.2l-12.4,36.5l38-12.1c9.8,5.4,21.1,8.5,33.2,8.5c37.9,0,68.7-30.5,68.7-68.1
			C806.6,234.5,806.6,233.9,806.6,233.3z M737.9,292.3c-11.7,0-22.6-3.5-31.8-9.5l-22.2,7.1l7.2-21.3c-6.9-9.4-11-21.1-11-33.6
			c0-1.9,0.1-3.7,0.3-5.6c2.8-29,27.5-51.7,57.4-51.7c30.3,0,55.2,23.3,57.5,52.8c0.1,1.5,0.2,3,0.2,4.5
			C795.7,266.7,769.8,292.3,737.9,292.3z"/>
		<path id="XMLID_117_" class="st1" d="M769.4,248.8c-1.7-0.8-10-4.9-11.5-5.4c-1.5-0.6-2.7-0.8-3.8,0.8c-1.1,1.7-4.4,5.4-5.3,6.5
			c-1,1.1-2,1.3-3.7,0.4c-1.7-0.8-7.1-2.6-13.5-8.3c-5-4.4-8.4-9.9-9.4-11.5c-1-1.7-0.1-2.6,0.7-3.4c0.8-0.8,1.7-2,2.5-2.9
			c0.2-0.3,0.4-0.5,0.6-0.8c0.4-0.6,0.7-1.2,1.1-2c0.6-1.1,0.3-2.1-0.1-2.9s-3.8-9.1-5.2-12.4c-1.4-3.3-2.8-2.8-3.8-2.8
			c-1,0-2.1-0.2-3.2-0.2c-1.1,0-3,0.4-4.5,2.1c-1.5,1.7-5.9,5.7-5.9,13.9c0,1.9,0.4,3.9,0.9,5.7c1.7,5.9,5.4,10.7,6,11.6
			c0.8,1.1,11.6,18.5,28.7,25.2c17.1,6.7,17.1,4.4,20.2,4.1c3.1-0.3,10-4,11.3-7.9c1.4-3.9,1.4-7.2,1-7.9
			C772.2,250.1,771.1,249.7,769.4,248.8z"/>
	</g>
</g>
<radialGradient id="XMLID_00000120558617278264681880000002237674363991262135_" cx="-117.0807" cy="353.849" r="132.6155" gradientTransform="matrix(3.5547 0 0 3.5547 532.3214 -903.3698)" gradientUnits="userSpaceOnUse">
	<stop  offset="0" style="stop-color:#F5EC53"/>
	<stop  offset="0.2412" style="stop-color:#E48244"/>
	<stop  offset="0.3974" style="stop-color:#D15767"/>
	<stop  offset="0.4888" style="stop-color:#C84278"/>
	<stop  offset="1" style="stop-color:#192CFA"/>
</radialGradient>
<path id="XMLID_1418_" style="fill:url(#XMLID_00000120558617278264681880000002237674363991262135_);" d="M250,353.6L250,353.6
	c-70.4,0-127.5-57.1-127.5-127.5l0,0c0-70.4,57.1-127.5,127.5-127.5h0c70.4,0,127.5,57.1,127.5,127.5l0,0
	C377.5,296.5,320.4,353.6,250,353.6z"/>
<g id="XMLID_1347_">
	<path id="XMLID_1352_" class="st3" d="M250,168.8c18.7,0,20.9,0.1,28.2,0.4c6.8,0.3,10.5,1.4,13,2.4c3.3,1.3,5.6,2.8,8,5.2
		c2.4,2.4,4,4.8,5.2,8c1,2.5,2.1,6.2,2.4,13c0.3,7.4,0.4,9.6,0.4,28.2c0,18.7-0.1,20.9-0.4,28.2c-0.3,6.8-1.4,10.5-2.4,13
		c-1.3,3.3-2.8,5.6-5.2,8c-2.4,2.4-4.8,4-8,5.2c-2.5,1-6.2,2.1-13,2.4c-7.4,0.3-9.6,0.4-28.2,0.4c-18.7,0-20.9-0.1-28.2-0.4
		c-6.8-0.3-10.5-1.4-13-2.4c-3.3-1.3-5.6-2.8-8-5.2c-2.4-2.4-4-4.8-5.2-8c-1-2.5-2.1-6.2-2.4-13c-0.3-7.4-0.4-9.6-0.4-28.2
		c0-18.7,0.1-20.9,0.4-28.2c0.3-6.8,1.5-10.5,2.4-13c1.3-3.3,2.8-5.6,5.2-8c2.4-2.4,4.8-4,8-5.2c2.5-1,6.2-2.1,13-2.4
		C229.1,168.9,231.3,168.8,250,168.8 M250,156.2c-19,0-21.4,0.1-28.8,0.4c-7.4,0.3-12.5,1.5-17,3.2c-4.6,1.8-8.5,4.2-12.4,8.1
		c-3.9,3.9-6.3,7.8-8.1,12.4c-1.7,4.4-2.9,9.5-3.2,17c-0.3,7.5-0.4,9.8-0.4,28.8s0.1,21.4,0.4,28.8c0.3,7.4,1.5,12.5,3.2,17
		c1.8,4.6,4.2,8.5,8.1,12.4c3.9,3.9,7.8,6.3,12.4,8.1c4.4,1.7,9.5,2.9,17,3.2c7.5,0.3,9.8,0.4,28.8,0.4c19,0,21.4-0.1,28.8-0.4
		c7.4-0.3,12.5-1.5,17-3.2c4.6-1.8,8.5-4.2,12.4-8.1c3.9-3.9,6.3-7.8,8.1-12.4c1.7-4.4,2.9-9.5,3.2-17c0.3-7.5,0.4-9.8,0.4-28.8
		s-0.1-21.4-0.4-28.8c-0.3-7.4-1.5-12.5-3.2-17c-1.8-4.6-4.2-8.5-8.1-12.4c-3.9-3.9-7.8-6.3-12.4-8.1c-4.4-1.7-9.5-2.9-17-3.2
		C271.4,156.3,269,156.2,250,156.2"/>
	<path id="XMLID_1349_" class="st3" d="M250,190.2c-19.8,0-35.9,16.1-35.9,35.9c0,19.8,16.1,35.9,35.9,35.9
		c19.8,0,35.9-16.1,35.9-35.9C285.9,206.3,269.8,190.2,250,190.2 M250,249.4c-12.9,0-23.3-10.4-23.3-23.3
		c0-12.9,10.4-23.3,23.3-23.3c12.9,0,23.3,10.4,23.3,23.3C273.3,239,262.9,249.4,250,249.4"/>
	<path id="XMLID_1348_" class="st3" d="M295.7,188.8c0,4.6-3.8,8.4-8.4,8.4c-4.6,0-8.4-3.8-8.4-8.4c0-4.6,3.8-8.4,8.4-8.4
		C291.9,180.4,295.7,184.2,295.7,188.8"/>
</g>
<path id="XMLID_633_" class="st4" d="M-302,353.6L-302,353.6c-70.4,0-127.5-57.1-127.5-127.5l0,0c0-70.4,57.1-127.5,127.5-127.5l0,0
	c70.4,0,127.5,57.1,127.5,127.5l0,0C-174.5,296.5-231.6,353.6-302,353.6z"/>
<path class="st3" d="M-244.6,185.5h-38.8v9h38.8V185.5z M-314.4,221.7c3-1.5,5.3-3.2,6.8-5.1c2.8-3.3,4.1-7.7,4.1-13.1
	c0-5.3-1.4-9.8-4.1-13.6c-4.5-6.2-12.3-9.3-23.1-9.5h-43.1v89.3h40.2c4.5,0,8.7-0.4,12.6-1.2c3.9-0.8,7.2-2.3,10.1-4.5
	c2.5-1.9,4.6-4.2,6.3-7c2.6-4.2,4-8.9,4-14.2c0-5.1-1.2-9.5-3.5-13.1C-306.4,226-309.9,223.4-314.4,221.7z M-356.1,195.9h19.4
	c4.3,0,7.8,0.5,10.5,1.4c3.2,1.3,4.8,4.1,4.8,8.2c0,3.8-1.2,6.4-3.6,7.8c-2.4,1.5-5.6,2.2-9.4,2.2h-21.7V195.9z M-325.4,252.6
	c-2.2,1.1-5.2,1.6-9,1.6h-21.7v-23.8h22c3.8,0,6.8,0.5,8.9,1.5c3.8,1.7,5.7,4.9,5.7,9.6C-319.5,246.9-321.4,250.6-325.4,252.6z
	 M-230.7,228.4c-0.8-5.2-2.6-9.7-5.3-13.6c-3-4.4-6.8-7.7-11.4-9.8c-4.6-2.1-9.8-3.1-15.5-3.1c-9.7,0-17.5,3.1-23.6,9.2
	c-6.1,6.1-9.1,14.9-9.1,26.3c0,12.2,3.4,21,10.1,26.4c6.7,5.4,14.5,8.1,23.2,8.1c10.6,0,18.9-3.2,24.8-9.6c3.8-4,5.9-8,6.4-11.9
	h-17.6c-1,1.9-2.2,3.4-3.6,4.5c-2.5,2-5.7,3-9.6,3c-3.7,0-6.9-0.8-9.5-2.5c-4.3-2.7-6.6-7.3-6.9-13.9h48.1
	C-230.1,235.8-230.3,231.4-230.7,228.4z M-277.8,230.1c0.6-4.3,2.2-7.7,4.6-10.2c2.4-2.5,5.9-3.8,10.3-3.8c4.1,0,7.5,1.2,10.2,3.6
	c2.8,2.4,4.3,5.9,4.6,10.4H-277.8z"/>
</svg>
