<?xml version="1.0" encoding="utf-8"?>
<!-- Generator: Adobe Illustrator 27.4.1, SVG Export Plug-In . SVG Version: 6.00 Build 0)  -->
<svg version="1.1" id="Camada_1" xmlns="http://www.w3.org/2000/svg" xmlns:xlink="http://www.w3.org/1999/xlink" x="0px" y="0px"
	 viewBox="0 0 112 112" style="enable-background:new 0 0 112 112;" xml:space="preserve">
<style type="text/css">
	.st0{fill:#117BB8;}
	.st1{fill:#FFFFFF;}
</style>
<g id="XMLID_1433_">
	<path id="XMLID_1439_" class="st0" d="M56.3,92.2L56.3,92.2c-19.8,0-35.9-16.1-35.9-35.9l0,0c0-19.8,16.1-35.9,35.9-35.9l0,0
		c19.8,0,35.9,16.1,35.9,35.9l0,0C92.1,76.1,76.1,92.2,56.3,92.2z"/>
	<g id="XMLID_1434_">
		<g id="XMLID_1436_">
			<rect id="XMLID_1438_" x="40" y="48.3" class="st1" width="7.4" height="24"/>
			<path id="XMLID_1437_" class="st1" d="M43.7,45.2c2.4,0,4.4-2,4.4-4.4c0-2.4-2-4.4-4.4-4.4c-2.4,0-4.4,2-4.4,4.4
				C39.3,43.2,41.3,45.2,43.7,45.2z"/>
		</g>
		<path id="XMLID_1435_" class="st1" d="M59.3,59.7c0-3.4,1.6-5.4,4.5-5.4c2.7,0,4,1.9,4,5.4c0,3.5,0,12.6,0,12.6h7.4
			c0,0,0-8.8,0-15.2c0-6.4-3.6-9.5-8.7-9.5c-5.1,0-7.2,4-7.2,4v-3.2h-7.1v24h7.1C59.3,72.3,59.3,63.4,59.3,59.7z"/>
	</g>
</g>
</svg>
