<?xml version="1.0" encoding="utf-8"?>
<!-- Generator: Adobe Illustrator 27.4.1, SVG Export Plug-In . SVG Version: 6.00 Build 0)  -->
<svg version="1.1" id="Capa_1" xmlns="http://www.w3.org/2000/svg" xmlns:xlink="http://www.w3.org/1999/xlink" x="0px" y="0px"
	 viewBox="0 0 500 500" style="enable-background:new 0 0 500 500;" xml:space="preserve">
<style type="text/css">
	.st0{fill:#FFFFFF;}
	.st1{fill:#1C1C1C;}
	.st2{fill:#FFCD03;}
</style>
<path class="st1" d="M62.3,362.6c1.3,0,2.5-0.5,3.5-1.5c1-1,1.6-2.4,1.9-4.3l1.3-9.1c-0.9-0.3-1.9-0.5-3.1-0.5
	c-1.7,0-3.1,0.6-4.1,1.9c-1,1.3-1.7,3.3-2.1,6.1c-0.1,0.7-0.2,1.3-0.2,1.8c0,0.6,0,1.1,0,1.5c0,0.8,0.1,1.5,0.2,2
	c0.1,0.5,0.3,0.9,0.6,1.3c0.2,0.3,0.5,0.5,0.9,0.6C61.5,362.6,61.9,362.6,62.3,362.6 M65.8,344.8c0.7,0,1.3,0,1.9,0.1
	c0.6,0.1,1.1,0.2,1.7,0.4l0.9-6.7l3-0.2l-3.7,26.4h-2.3l-0.1-1.2c0-0.2,0-0.4,0-0.7v-0.7l-0.1,0c-0.7,1-1.6,1.7-2.6,2.1
	c-1,0.5-2.1,0.7-3.2,0.7c-0.8,0-1.5-0.1-2.1-0.3c-0.6-0.2-1.1-0.6-1.5-1.1c-0.4-0.5-0.7-1.1-0.9-1.9c-0.2-0.8-0.3-1.8-0.3-2.9
	c0-2.4,0.2-4.5,0.7-6.3c0.5-1.8,1.1-3.2,2-4.4c0.8-1.1,1.8-2,3-2.5C63.2,345,64.5,344.8,65.8,344.8"/>
<path class="st1" d="M86.7,347c-1.5,0-2.7,0.6-3.5,1.7c-0.8,1.1-1.5,2.9-1.9,5.3c1.5-0.2,2.7-0.5,3.7-0.8c1-0.3,1.9-0.7,2.5-1.1
	s1.1-0.9,1.4-1.4c0.3-0.5,0.4-1.1,0.4-1.7c0-0.6-0.2-1.1-0.6-1.5C88.2,347.2,87.6,347,86.7,347 M87,344.7c1.7,0,2.9,0.4,3.7,1.1
	c0.8,0.7,1.2,1.7,1.2,2.8c0,1-0.2,1.9-0.6,2.7c-0.4,0.8-1,1.5-1.9,2.1c-0.9,0.6-2,1.2-3.4,1.6c-1.4,0.5-3.1,0.9-5.1,1.1
	c-0.1,0.7-0.1,1.3-0.1,1.9c0,0.9,0.1,1.6,0.2,2.2c0.2,0.6,0.4,1,0.7,1.4c0.3,0.3,0.7,0.6,1.2,0.7c0.5,0.1,1,0.2,1.6,0.2
	c1.9,0,3.4-0.6,4.7-1.7l0.9,1.8c-0.8,0.7-1.7,1.3-2.7,1.7c-1.1,0.4-2.3,0.7-3.7,0.7c-0.9,0-1.7-0.1-2.5-0.4
	c-0.7-0.2-1.4-0.6-1.9-1.2c-0.5-0.5-0.9-1.3-1.2-2.2c-0.3-0.9-0.4-2-0.4-3.2c0-0.5,0-1,0.1-1.5c0-0.5,0.1-1.1,0.2-1.7
	c0.5-3.4,1.5-5.9,2.9-7.6C82.6,345.6,84.5,344.7,87,344.7"/>
<path class="st1" d="M104.9,344.7c0.8,0,1.7,0.1,2.5,0.3c0.8,0.2,1.5,0.5,2.1,0.9l-1.2,2.1c-0.6-0.3-1.2-0.5-1.8-0.7
	c-0.7-0.1-1.3-0.2-2-0.2c-1.1,0-2,0.3-2.7,0.8c-0.7,0.5-1.1,1.3-1.1,2.2c0,0.6,0.2,1.1,0.6,1.5c0.4,0.4,0.8,0.7,1.4,1.1
	c0.5,0.3,1.2,0.6,1.8,0.9c0.7,0.3,1.3,0.6,1.8,1.1c0.5,0.4,1,0.9,1.4,1.5c0.4,0.6,0.6,1.3,0.6,2.2c0,2.1-0.6,3.7-1.8,4.9
	c-1.2,1.2-3,1.8-5.2,1.8c-1.1,0-2.1-0.2-3.1-0.5c-1-0.3-1.8-0.8-2.4-1.4l1.1-2.2c0.6,0.5,1.3,1,2,1.2c0.8,0.3,1.6,0.4,2.4,0.4
	c1.3,0,2.3-0.3,3-1c0.7-0.7,1-1.6,1-2.6c0-0.6-0.2-1.2-0.6-1.6s-0.8-0.8-1.4-1.2c-0.5-0.3-1.1-0.7-1.8-1c-0.6-0.3-1.2-0.7-1.8-1.1
	c-0.5-0.4-1-0.9-1.4-1.4c-0.4-0.6-0.6-1.3-0.6-2.1c0-0.9,0.2-1.7,0.5-2.4c0.3-0.7,0.8-1.4,1.4-1.9c0.6-0.5,1.4-0.9,2.2-1.2
	C102.8,344.9,103.8,344.7,104.9,344.7"/>
<path class="st1" d="M119.7,338.5c1.1,0,1.7,0.4,1.7,1.3c0,0.6-0.2,1.1-0.6,1.4c-0.4,0.3-0.9,0.5-1.6,0.5c-0.6,0-1-0.1-1.3-0.3
	c-0.3-0.2-0.4-0.5-0.4-0.9C117.5,339.1,118.3,338.5,119.7,338.5 M114.6,364.7l2.7-19.6l3-0.2l-2.8,19.8H114.6z"/>
<path class="st1" d="M291.1,338.5c1.1,0,1.7,0.4,1.7,1.3c0,0.6-0.2,1.1-0.6,1.4c-0.4,0.3-0.9,0.5-1.6,0.5c-0.6,0-1-0.1-1.3-0.3
	c-0.3-0.2-0.4-0.5-0.4-0.9C288.9,339.1,289.7,338.5,291.1,338.5 M286,364.7l2.7-19.6l3-0.2l-2.8,19.8H286z"/>
<path class="st1" d="M132.6,361.3c1.3,0,2.3-0.5,3.2-1.5c0.9-1,1.4-2.4,1.7-4.2l1.2-8.3c-0.3,0-0.6-0.1-1-0.1c-0.4,0-0.8,0-1.2,0
	c-1,0-1.9,0.2-2.8,0.7c-0.8,0.5-1.6,1.1-2.2,2c-0.6,0.9-1.1,1.9-1.5,3.2c-0.4,1.3-0.5,2.7-0.5,4.4c0,0.7,0.1,1.4,0.2,1.9
	c0.1,0.5,0.3,0.9,0.6,1.2c0.3,0.3,0.6,0.5,1,0.6C131.7,361.2,132.2,361.3,132.6,361.3 M139.7,361.7c-0.2,1.5-0.6,2.7-1.1,3.7
	c-0.5,1-1.1,1.9-1.9,2.5s-1.6,1.1-2.6,1.4c-1,0.3-2,0.4-3.2,0.4c-0.9,0-1.8-0.1-2.7-0.3c-0.9-0.2-1.6-0.5-2.3-0.9l0.7-2.2
	c0.7,0.3,1.3,0.6,2,0.8c0.7,0.2,1.4,0.3,2.1,0.3c0.8,0,1.5-0.1,2.2-0.3c0.7-0.2,1.2-0.5,1.7-0.9c0.5-0.4,0.9-1,1.3-1.7
	c0.3-0.7,0.6-1.7,0.7-2.8l0.1-0.6l-0.1,0c-0.6,0.9-1.3,1.5-2.2,2c-0.9,0.4-1.9,0.6-3,0.6c-0.8,0-1.5-0.1-2.1-0.3
	c-0.6-0.2-1.1-0.5-1.6-1c-0.4-0.5-0.8-1.1-1-1.8c-0.2-0.8-0.3-1.7-0.3-2.8c0-2,0.2-3.8,0.7-5.4c0.5-1.6,1.2-2.9,2-4.1
	c0.9-1.1,2-2,3.2-2.6c1.3-0.6,2.7-0.9,4.3-0.9c0.8,0,1.5,0,2.2,0.1c0.6,0.1,1.3,0.1,1.9,0.1h1.1L139.7,361.7z"/>
<path class="st1" d="M159.8,351.9c0-0.3,0.1-0.6,0.1-0.9c0-0.3,0-0.5,0-0.8c0-1.1-0.2-1.9-0.7-2.3c-0.5-0.4-1.2-0.6-2.1-0.6
	c-1.4,0-2.6,0.5-3.5,1.5c-1,1-1.6,2.5-1.9,4.3l-1.6,11.6h-3l2.7-19.6l2.4-0.2v1.9c0,0.2,0,0.4,0,0.7l0.1,0c0.7-0.9,1.6-1.7,2.6-2.2
	c1-0.5,2.1-0.7,3.4-0.7c1.6,0,2.7,0.4,3.5,1.2c0.8,0.8,1.2,2.1,1.2,3.9c0,0.3,0,0.6,0,1c0,0.3-0.1,0.7-0.1,1.1l-1.8,12.9h-3
	L159.8,351.9z"/>
<path class="st1" d="M177.7,347c-1.5,0-2.7,0.6-3.5,1.7c-0.8,1.1-1.5,2.9-1.9,5.3c1.5-0.2,2.7-0.5,3.7-0.8c1-0.3,1.9-0.7,2.5-1.1
	c0.6-0.4,1.1-0.9,1.4-1.4c0.3-0.5,0.4-1.1,0.4-1.7c0-0.6-0.2-1.1-0.6-1.5C179.3,347.2,178.6,347,177.7,347 M178,344.7
	c1.7,0,2.9,0.4,3.7,1.1c0.8,0.7,1.2,1.7,1.2,2.8c0,1-0.2,1.9-0.6,2.7c-0.4,0.8-1,1.5-1.9,2.1c-0.9,0.6-2,1.2-3.4,1.6
	c-1.4,0.5-3.1,0.9-5.1,1.1c-0.1,0.7-0.1,1.3-0.1,1.9c0,0.9,0.1,1.6,0.2,2.2c0.2,0.6,0.4,1,0.7,1.4c0.3,0.3,0.7,0.6,1.2,0.7
	c0.5,0.1,1,0.2,1.6,0.2c1.9,0,3.4-0.6,4.7-1.7l0.9,1.8c-0.8,0.7-1.7,1.3-2.7,1.7c-1.1,0.4-2.3,0.7-3.7,0.7c-0.9,0-1.7-0.1-2.5-0.4
	c-0.7-0.2-1.4-0.6-1.9-1.2c-0.5-0.5-0.9-1.3-1.2-2.2c-0.3-0.9-0.4-2-0.4-3.2c0-0.5,0-1,0.1-1.5s0.1-1.1,0.2-1.7
	c0.5-3.4,1.5-5.9,2.9-7.6C173.6,345.6,175.6,344.7,178,344.7"/>
<path class="st1" d="M198.4,344.8c0.4,0,0.8,0,1.2,0.1c0.4,0.1,0.7,0.2,0.9,0.3l-0.9,2.9c-0.3-0.2-0.5-0.3-0.8-0.3
	c-0.3-0.1-0.6-0.1-1-0.1c-1.4,0-2.7,0.6-3.8,1.9c-1.1,1.2-1.8,3.1-2.2,5.7l-1.3,9.5h-3l2.7-19.6l2.4-0.2l-0.1,2.4l-0.1,1.3l0.1,0
	c0.7-1.4,1.6-2.4,2.6-3.1C196.2,345.1,197.3,344.8,198.4,344.8"/>
<path class="st1" d="M219.3,361.3c1.3,0,2.3-0.5,3.2-1.5c0.9-1,1.4-2.4,1.7-4.2l1.2-8.3c-0.3,0-0.6-0.1-1-0.1c-0.4,0-0.8,0-1.2,0
	c-1,0-1.9,0.2-2.8,0.7c-0.8,0.5-1.6,1.1-2.2,2c-0.6,0.9-1.1,1.9-1.5,3.2c-0.4,1.3-0.5,2.7-0.5,4.4c0,0.7,0.1,1.4,0.2,1.9
	c0.1,0.5,0.3,0.9,0.6,1.2c0.3,0.3,0.6,0.5,1,0.6C218.4,361.2,218.8,361.3,219.3,361.3 M226.3,361.7c-0.2,1.5-0.6,2.7-1.1,3.7
	c-0.5,1-1.1,1.9-1.9,2.5c-0.7,0.6-1.6,1.1-2.6,1.4c-1,0.3-2,0.4-3.2,0.4c-0.9,0-1.8-0.1-2.7-0.3c-0.9-0.2-1.6-0.5-2.3-0.9l0.7-2.2
	c0.7,0.3,1.3,0.6,2,0.8c0.7,0.2,1.4,0.3,2.1,0.3c0.8,0,1.5-0.1,2.2-0.3c0.7-0.2,1.2-0.5,1.7-0.9c0.5-0.4,0.9-1,1.3-1.7
	c0.3-0.7,0.6-1.7,0.7-2.8l0.1-0.6l-0.1,0c-0.6,0.9-1.3,1.5-2.2,2c-0.9,0.4-1.9,0.6-3,0.6c-0.8,0-1.5-0.1-2.1-0.3
	c-0.6-0.2-1.1-0.5-1.6-1c-0.4-0.5-0.8-1.1-1-1.8c-0.2-0.8-0.3-1.7-0.3-2.8c0-2,0.2-3.8,0.7-5.4c0.5-1.6,1.2-2.9,2-4.1
	c0.9-1.1,2-2,3.2-2.6c1.3-0.6,2.7-0.9,4.3-0.9c0.8,0,1.5,0,2.2,0.1c0.6,0.1,1.3,0.1,1.9,0.1h1.1L226.3,361.7z"/>
<path class="st1" d="M244.7,344.8c0.4,0,0.8,0,1.2,0.1c0.4,0.1,0.7,0.2,0.9,0.3l-0.9,2.9c-0.3-0.2-0.5-0.3-0.8-0.3
	c-0.3-0.1-0.6-0.1-1-0.1c-1.4,0-2.7,0.6-3.8,1.9c-1.1,1.2-1.8,3.1-2.2,5.7l-1.3,9.5h-3l2.7-19.6l2.4-0.2l-0.1,2.4l-0.1,1.3l0.1,0
	c0.7-1.4,1.6-2.4,2.6-3.1S243.6,344.8,244.7,344.8"/>
<path class="st1" d="M265.8,338.2l-4.1,4.6h-2.3l2.8-4.6H265.8z M256,362.6c1.3,0,2.5-0.5,3.5-1.5c1-1,1.6-2.4,1.9-4.3l1.4-9.5
	c-0.3,0-0.7-0.1-1-0.1c-0.3,0-0.7,0-1.1,0c-2,0-3.6,0.7-4.9,2.1c-1.2,1.4-2.1,3.6-2.5,6.6c-0.1,0.6-0.1,1.1-0.2,1.6
	c0,0.5,0,0.9,0,1.3c0,1.5,0.3,2.5,0.8,3C254.3,362.3,255,362.6,256,362.6 M261,344.8c0.5,0,1,0,1.4,0c0.4,0,0.8,0.1,1.1,0.1
	c0.3,0,0.7,0.1,1,0.1c0.4,0,0.7,0,1.1,0h0.4l-2.7,19.7h-2.3l0-1.3v-0.7c0-0.2,0-0.5,0.1-0.7l-0.1,0c-0.8,1-1.7,1.8-2.7,2.3
	c-1,0.5-2.1,0.7-3.2,0.7c-1.7,0-2.9-0.5-3.8-1.4c-0.9-0.9-1.3-2.5-1.3-4.7c0-2.2,0.3-4.2,0.8-6c0.5-1.7,1.3-3.2,2.3-4.5
	c1-1.2,2.1-2.1,3.5-2.8C257.9,345.1,259.4,344.8,261,344.8"/>
<path class="st1" d="M307.2,344.8c1.7,0,3.2,0.4,4.5,1.1l-1.1,2.1c-0.5-0.2-1-0.4-1.5-0.5c-0.5-0.1-1.1-0.2-1.7-0.2
	c-1.7,0-3,0.6-4,1.8c-1,1.2-1.7,3.1-2.1,5.9c-0.1,0.6-0.2,1.1-0.2,1.7c0,0.5-0.1,1-0.1,1.4c0,0.9,0.1,1.6,0.2,2.2
	c0.2,0.6,0.4,1,0.7,1.4c0.3,0.4,0.7,0.6,1.1,0.7c0.4,0.1,0.9,0.2,1.5,0.2c0.8,0,1.6-0.1,2.3-0.4c0.7-0.3,1.3-0.7,1.9-1.3l0.9,1.8
	c-0.8,0.8-1.7,1.4-2.6,1.8c-0.9,0.4-2,0.6-3.2,0.6c-0.9,0-1.7-0.1-2.4-0.4c-0.7-0.3-1.3-0.6-1.8-1.2c-0.5-0.5-0.9-1.2-1.2-2.1
	c-0.3-0.9-0.4-1.9-0.4-3.2c0-0.5,0-1,0.1-1.6c0-0.5,0.1-1.1,0.2-1.8c0.5-3.5,1.5-6,3-7.6C302.7,345.6,304.7,344.8,307.2,344.8"/>
<path class="st1" d="M324.3,347.2c-0.8,0-1.4,0.1-2,0.4c-0.6,0.3-1.1,0.7-1.5,1.3c-0.4,0.6-0.8,1.4-1.1,2.4c-0.3,1-0.6,2.3-0.8,3.8
	c-0.2,1.4-0.3,2.6-0.3,3.5c0,0.8,0.1,1.5,0.2,2c0.1,0.5,0.4,1,0.6,1.3c0.3,0.3,0.6,0.6,1.1,0.7c0.4,0.1,0.9,0.2,1.5,0.2
	c0.8,0,1.5-0.1,2.1-0.4c0.6-0.3,1.1-0.7,1.5-1.3c0.4-0.6,0.8-1.4,1.1-2.4c0.3-1,0.6-2.3,0.8-3.8c0.2-1.3,0.3-2.5,0.3-3.4
	c0-1.7-0.3-2.8-0.9-3.4C326.3,347.5,325.4,347.2,324.3,347.2 M324.7,344.7c2.2,0,3.7,0.5,4.7,1.5c1,1,1.4,2.7,1.4,5
	c0,1.1-0.1,2.3-0.3,3.7c-0.2,1.8-0.6,3.3-1.1,4.6c-0.5,1.3-1,2.3-1.7,3.1c-0.7,0.8-1.6,1.4-2.6,1.8c-1,0.4-2.2,0.6-3.5,0.6
	c-2.2,0-3.7-0.5-4.7-1.5c-1-1-1.5-2.7-1.5-5c0-1.1,0.1-2.3,0.3-3.7c0.2-1.8,0.6-3.3,1.1-4.6s1-2.3,1.7-3.1c0.7-0.8,1.6-1.4,2.6-1.8
	C322.2,344.9,323.3,344.7,324.7,344.7"/>
<path class="st1" d="M277.8,345.2c0.1-1,0.3-1.8,0.6-2.5c0.3-0.6,0.6-1.1,1.1-1.5c0.4-0.3,0.9-0.6,1.5-0.7c0.6-0.1,1.3-0.2,2-0.2
	l0.1-2.2c-1.3,0-2.5,0.1-3.5,0.3c-1,0.2-1.8,0.6-2.4,1.2c-0.7,0.5-1.2,1.3-1.6,2.1c-0.4,0.9-0.7,2-0.9,3.3h-2.5l-0.4,2.1h2.6
	l-2.4,17.4h3l2.4-17.4h4.9l0.3-2.1H277.8z"/>
<path class="st2" d="M484.7,262.3c-10.5-54.1-31.3-90.7-56.4-91.5c-14.2-0.5-27.7,10.5-39.3,29.7c-2.2,3.6-7.7,1.7-7.1-2.5
	c2.6-19.2,8.4-39.4,17.9-69.5c3.4-9.4-5-18.8-17.2-20.6c-12.3-1.8-24,4.5-25.9,14.1c-8,48.1-7.4,96.7-0.7,132.8
	c0.3,1.9,1.4,7.1,1.5,7.4c1.6,4.7,6,8.1,11.3,8.1c0.8,0,1.5-0.1,2.2-0.2c0.4-0.1,0.7-0.2,1.1-0.3c2.7-0.6,5.6-1.2,8.6-1.7
	c5.2-0.9,9.3-4.7,10.5-9.9c6.9-30.2,16.8-49.5,27.3-49.1c10,0.3,18.4,18.6,23.4,47c1,5.6,5.6,10,11.2,10.7c8.4,1,16,2.5,22.3,4.2
	C480.7,272.4,485.8,267.7,484.7,262.3"/>
<path class="st1" d="M67.1,311l5.9-42.7c0.2-1.7,0.3-3.3,0.3-4.8c0-3.2-0.6-5.4-1.9-6.6c-1.3-1.2-3.3-1.9-6-1.9
	c-4.1,0-7.5,1.5-10.2,4.5c-2.7,3-4.4,7.2-5.1,12.4l-5.5,39H26.3L39,220.7l18.6-1l-3,21.3c-0.2,0.8-0.3,1.5-0.3,2.3
	c-0.1,0.8-0.2,1.5-0.3,2.3l0.1,0.1c5.3-4.2,11.5-6.3,18.8-6.3c6.6,0,11.5,1.8,14.7,5.3c3.2,3.6,4.8,8.9,4.8,15.9
	c0,1.1,0,2.2-0.1,3.4c-0.1,1.2-0.2,2.5-0.3,3.8l-6,43.1H67.1z"/>
<path class="st1" d="M121.5,217.8c3.3,0,5.7,0.5,7.2,1.6c1.5,1,2.3,2.6,2.3,4.6c0,6-3.9,8.9-11.6,8.9c-3.2,0-5.6-0.4-7.2-1.3
	c-1.5-0.9-2.3-2.5-2.3-4.7c0-2.9,1-5.2,2.9-6.7C114.8,218.6,117.7,217.8,121.5,217.8 M99.3,311l9.7-69.7l18.6-0.8l-9.9,70.5H99.3z"
	/>
<path class="st1" d="M168.5,253.3c-4.2,0-7.5,1.4-9.9,4.2c-2.4,2.8-4.2,7.4-5.4,13.8c4.1-0.6,7.6-1.4,10.4-2.2
	c2.8-0.8,5.1-1.8,6.8-3c1.7-1.1,2.9-2.3,3.7-3.6c0.7-1.3,1.1-2.7,1.1-4.2c0-1.5-0.5-2.7-1.6-3.6
	C172.5,253.7,170.8,253.3,168.5,253.3 M170.3,239.5c7,0,12.2,1.5,15.9,4.6c3.6,3.1,5.5,7.1,5.5,11.9c0,3.8-0.8,7.2-2.3,10.1
	c-1.5,3-3.9,5.6-7.1,7.8c-3.2,2.2-7.4,4.1-12.5,5.7c-5.1,1.5-11.1,2.8-18.1,3.7c0,2.8,0.2,5.1,0.8,6.9c0.5,1.8,1.3,3.3,2.3,4.3
	c1,1.1,2.4,1.9,4,2.3c1.6,0.5,3.6,0.7,5.8,0.7c3.2,0,6.3-0.5,9-1.4c2.8-0.9,5.3-2.3,7.5-4.1l4.8,11c-3,2.6-6.8,4.7-11.2,6.4
	c-4.5,1.7-9.6,2.6-15.4,2.6c-3.9,0-7.4-0.5-10.5-1.6c-3.1-1-5.8-2.7-8.1-4.9c-2.2-2.2-4-5-5.2-8.5c-1.2-3.5-1.9-7.6-1.9-12.4
	c0-2.9,0.2-6,0.7-9.5c1.6-12,5.5-21,11.6-27C152,242.5,160.1,239.5,170.3,239.5"/>
<path class="st1" d="M222.5,297.8c3.9,0,7.2-1.5,9.9-4.5c2.7-3,4.5-7,5.2-12.1l3.6-25.6c-1.3-0.3-2.6-0.5-3.9-0.7
	c-1.3-0.2-2.8-0.2-4.5-0.2c-5,0-9,1.8-12.1,5.4c-3,3.6-5.1,9.5-6.3,17.6c-0.2,1.8-0.4,3.4-0.6,4.9s-0.2,2.9-0.2,4.1
	c0,4.3,0.8,7.3,2.3,8.8C217.5,297,219.7,297.8,222.5,297.8 M231.6,239.7c4.4,0,8.3,0.4,11.7,1.2l2.8-20.3l18.7-0.9L252,311h-14.3
	l-1.3-6.6l-0.2-0.1c-2.9,2.8-6.1,4.8-9.6,6.1c-3.6,1.3-7.3,1.9-11.1,1.9c-6.8,0-11.9-1.9-15.4-5.6c-3.4-3.7-5.2-9.9-5.2-18.5
	c0-8.3,0.9-15.6,2.7-21.6c1.8-6.1,4.3-11.1,7.6-15.1c3.2-4,7.1-6.9,11.6-8.9C221.3,240.7,226.2,239.7,231.6,239.7"/>
<path class="st1" d="M301.9,254.2c-2.2,0-4.2,0.3-5.8,1c-1.6,0.7-3.1,1.8-4.3,3.5c-1.2,1.7-2.3,3.9-3.1,6.8c-0.9,2.9-1.6,6.5-2.2,11
	c-0.3,2-0.5,3.9-0.6,5.6c-0.1,1.7-0.2,3.2-0.2,4.6c0,4.6,0.8,7.8,2.4,9.3c1.6,1.6,4.1,2.4,7.5,2.4c2.2,0,4.2-0.3,5.9-1
	c1.7-0.7,3.1-1.8,4.3-3.5c1.2-1.7,2.3-3.9,3.2-6.8c0.9-2.9,1.6-6.6,2.3-11.2c0.3-2,0.5-3.8,0.7-5.5c0.2-1.7,0.2-3.2,0.2-4.6
	c0-4.6-0.8-7.7-2.5-9.3C308,255,305.4,254.2,301.9,254.2 M304.4,239.5c9.4,0,16.2,2.1,20.3,6.4c4.1,4.3,6.1,10.8,6.1,19.4
	c0,1.7-0.1,3.5-0.2,5.3c-0.1,1.8-0.3,3.7-0.6,5.7c-0.9,6.2-2.2,11.5-4.1,16.1c-1.9,4.5-4.3,8.3-7.2,11.2c-2.9,2.9-6.5,5.1-10.7,6.6
	c-4.2,1.5-9.1,2.2-14.7,2.2c-9.4,0-16.2-2.1-20.3-6.3c-4.1-4.2-6.1-10.6-6.1-19.3c0-1.7,0.1-3.5,0.2-5.4c0.2-1.9,0.4-3.8,0.7-5.9
	c1.7-12.3,5.4-21.4,11.1-27.2C284.7,242.4,293.2,239.5,304.4,239.5"/>
</svg>
