<?xml version="1.0" encoding="utf-8"?>
<!-- Generator: Adobe Illustrator 27.4.1, SVG Export Plug-In . SVG Version: 6.00 Build 0)  -->
<svg version="1.1" id="Camada_1" xmlns="http://www.w3.org/2000/svg" xmlns:xlink="http://www.w3.org/1999/xlink" x="0px" y="0px"
	 viewBox="0 0 634.1 595.3" style="enable-background:new 0 0 634.1 595.3;" xml:space="preserve">
<style type="text/css">
	.st0{fill:#8156E4;}
	.st1{fill:none;}
	.st2{fill:#FFFFFF;}
	.st3{fill:#FF7371;}
</style>
<rect x="-7.1" class="st0" width="648.4" height="595.3"/>
<polygon class="st1" points="344.3,452.6 375,452.6 359.8,415.7 "/>
<path class="st1" d="M450.4,396.1h-12.3v76h12.3c27.3,0,39.2-15.7,39.2-38C489.6,411.8,477.7,396.1,450.4,396.1z"/>
<path class="st1" d="M422.4,332.5c20.8-22.1,48.2-55.5,46.3-90.8c-1.6-30-25.1-60.3-67-60.3c-1.1,0-2.3,0-3.5,0.1
	c-31.8,1.3-55.1,33.6-55.3,33.9l-15.5,22.2l-15.1-22.5c-0.2-0.3-22.9-32.9-54.9-34.7c-1.6-0.1-3.1-0.1-4.7-0.1
	c-41.1,0-64.7,29.8-66.7,59.3c-2.4,35.3,24.5,69.1,45,91.5c15.4,16.9,35.8,34.7,55.9,50.3h13.1v9.9c9.2,6.8,18.1,12.9,26.2,18
	c8.8-5.4,18.6-12,28.8-19.3l4.6-10.8h0.9l2.2,5.1C383.9,368.5,405.9,349.9,422.4,332.5z"/>
<path class="st2" d="M286.8,381.4c4.4,3.4,8.8,6.7,13.1,9.9v-9.9H286.8z"/>
<path class="st2" d="M232.7,381.4v105.5h69.3v-14.7h-52.7v-31.3h44.8v-14.4h-44.8v-30.3h26.2c-6.1-4.7-12.2-9.6-18.3-14.7H232.7z"/>
<polygon class="st2" points="169.5,381.4 152.9,381.4 152.9,486.9 216,486.9 216,472.1 169.5,472.1 "/>
<path class="st2" d="M451.3,381.4h-29.8v105.5h29.8c34.6,0,55.5-21.6,55.5-52.7S485.7,381.4,451.3,381.4z M450.4,472.1h-12.3v-76
	h12.3c27.3,0,39.2,15.7,39.2,38C489.6,456.5,477.7,472.1,450.4,472.1z"/>
<path class="st2" d="M370.2,401.8l-7.5-17.5l-2.2-5.1h-0.9l-4.6,10.8l-13.6,31.6l-28,65.2H330l8.2-19.7H381l8.2,19.7h17.5
	L370.2,401.8z M344.3,452.6l15.5-36.9l15.2,36.9H344.3z"/>
<path class="st3" d="M424.4,165.5c-7.1-1.8-14.7-2.7-22.8-2.7c-1.4,0-2.8,0-4.2,0.1c-4.7,0.2-9.2,0.9-13.5,1.9v0.7H424.4z"/>
<path class="st2" d="M336.1,74.8L314,142.1L284,72.6h-0.9l-29.8,69.5l-22.7-67.3h-17.5l30.8,87.3c2.8-0.3,5.8-0.4,8.7-0.4
	c1.9,0,3.8,0.1,5.7,0.2c0.6,0,1.2,0.1,1.8,0.1l23.4-53.9l31.2,73.5h0.9l36.9-106.9H336.1z"/>
<polygon class="st2" points="383.9,165.5 383.9,134.2 428.7,134.2 428.7,119.8 383.9,119.8 383.9,89.5 434.5,89.5 434.5,74.8 
	367.3,74.8 367.3,180.3 436.7,180.3 436.7,165.5 "/>
<path class="st3" d="M487.2,240.6c-1.6-30.5-20.4-58.7-50.5-71.1v10.7h-69.3v-9.4c-24.6,12.2-39.7,33.8-39.7,33.8
	S301,165.4,260.1,162c-0.6,0-1.2-0.1-1.8-0.1c-1.9-0.1-3.8-0.2-5.7-0.2c-3,0-5.9,0.1-8.7,0.4c-44.4,4-73.9,38-76.5,76.2
	c-2.8,41.7,26.3,79.5,49.8,105.3c11.7,12.8,25.7,25.8,40,37.8c6.1,5.1,12.2,10,18.3,14.7c18.7,14.5,36.9,26.9,50.4,34.8
	c4.6-2.6,9.8-5.8,15.3-9.3l13.6-31.6c-10.2,7.3-20,13.9-28.8,19.3c-8-5.1-16.9-11.2-26.2-18c-4.3-3.2-8.7-6.5-13.1-9.9
	c-20.1-15.6-40.5-33.5-55.9-50.3c-20.5-22.4-47.4-56.2-45-91.5c2-28.9,24.7-58.1,64.4-59.2c0.6,0,1.2-0.1,1.8-0.1c0.2,0,0.3,0,0.5,0
	c1.5,0,3.1,0,4.7,0.1c31.9,1.8,54.7,34.4,54.9,34.7l15.1,22.5l15.5-22.2c0.2-0.3,23.5-32.6,55.3-33.9c1.2,0,2.3-0.1,3.5-0.1
	c41.9,0,65.4,30.3,67,60.3c1.9,35.3-25.5,68.8-46.3,90.8c-16.4,17.5-38.4,36-59.8,51.9l7.5,17.5c22.7-16.6,46.9-36.7,65.7-56.6
	C459.8,319.8,489.4,282.4,487.2,240.6z"/>
</svg>
